Wavefont-Light.ufo
<glyph name="_4" format="2">
  <advance width="25.0"/>
  <unicode hex="0104"/>
  <unicode hex="0063"/>
  <outline>
    <contour>
      <point x="0.0" y="12.959183673469386" type="line"/>
      <point x="0.0" y="27.95918367346939" type="line"/>
      <point x="25.0" y="27.95918367346939" type="line"/>
      <point x="25.0" y="12.959183673469386" type="line"/>
    </contour>
    <component base="cap"/>
    <component base="cap" yOffset="15.0"/>
  </outline>
</glyph>
<glyph name="_5" format="2">
  <advance width="25.0"/>
  <unicode hex="0105"/>
  <outline>
    <contour>
      <point x="0.0" y="12.959183673469386" type="line"/>
      <point x="0.0" y="37.95918367346939" type="line"/>
      <point x="25.0" y="37.95918367346939" type="line"/>
      <point x="25.0" y="12.959183673469386" type="line"/>
    </contour>
    <component base="cap"/>
    <component base="cap" yOffset="25.0"/>
  </outline>
</glyph>
<glyph name="_6" format="2">
  <advance width="25.0"/>
  <unicode hex="0106"/>
  <unicode hex="0064"/>
  <outline>
    <contour>
      <point x="0.0" y="12.959183673469386" type="line"/>
      <point x="0.0" y="47.95918367346939" type="line"/>
      <point x="25.0" y="47.95918367346939" type="line"/>
      <point x="25.0" y="12.959183673469386" type="line"/>
    </contour>
    <component base="cap"/>
    <component base="cap" yOffset="35.0"/>
  </outline>
</glyph>
<glyph name="_7" format="2">
  <advance width="25.0"/>
  <unicode hex="0107"/>
  <outline>
    <contour>
      <point x="0.0" y="12.959183673469386" type="line"/>
      <point x="0.0" y="57.95918367346939" type="line"/>
      <point x="25.0" y="57.95918367346939" type="line"/>
      <point x="25.0" y="12.959183673469386" type="line"/>
    </contour>
    <component base="cap"/>
    <component base="cap" yOffset="45.0"/>
  </outline>
</glyph>
<glyph name="_8" format="2">
  <advance width="25.0"/>
  <unicode hex="0108"/>
  <unicode hex="0065"/>
  <outline>
    <contour>
      <point x="0.0" y="12.959183673469386" type="line"/>
      <point x="0.0" y="67.95918367346938" type="line"/>
      <point x="25.0" y="67.95918367346938" type="line"/>
      <point x="25.0" y="12.959183673469386" type="line"/>
    </contour>
    <component base="cap"/>
    <component base="cap" yOffset="55.0"/>
  </outline>
</glyph>
<glyph name="_10" format="2">
  <advance width="25.0"/>
  <unicode hex="010A"/>
  <unicode hex="0031"/>
  <unicode hex="0066"/>
  <outline>
    <contour>
      <point x="0.0" y="12.959183673469386" type="line"/>
      <point x="0.0" y="87.95918367346938" type="line"/>
      <point x="25.0" y="87.95918367346938" type="line"/>
      <point x="25.0" y="12.959183673469386" type="line"/>
    </contour>
    <component base="cap"/>
    <component base="cap" yOffset="75.0"/>
  </outline>
</glyph>
<glyph name="_12" format="2">
  <advance width="25.0"/>
  <unicode hex="010C"/>
  <unicode hex="0067"/>
  <outline>
    <contour>
      <point x="0.0" y="12.959183673469386" type="line"/>
      <point x="0.0" y="107.95918367346938" type="line"/>
      <point x="25.0" y="107.95918367346938" type="line"/>
      <point x="25.0" y="12.959183673469386" type="line"/>
    </contour>
    <component base="cap"/>
    <component base="cap" yOffset="95.0"/>
  </outline>
</glyph>
<glyph name="_13" format="2">
  <advance width="25.0"/>
  <unicode hex="010D"/>
  <outline>
    <contour>
      <point x="0.0" y="12.959183673469386" type="line"/>
      <point x="0.0" y="117.95918367346938" type="line"/>
      <point x="25.0" y="117.95918367346938" type="line"/>
      <point x="25.0" y="12.959183673469386" type="line"/>
    </contour>
    <component base="cap"/>
    <component base="cap" yOffset="105.0"/>
  </outline>
</glyph>
<glyph name="_14" format="2">
  <advance width="25.0"/>
  <unicode hex="010E"/>
  <unicode hex="2582"/>
  <unicode hex="0068"/>
  <outline>
    <contour>
      <point x="0.0" y="12.959183673469386" type="line"/>
      <point x="0.0" y="127.95918367346938" type="line"/>
      <point x="25.0" y="127.95918367346938" type="line"/>
      <point x="25.0" y="12.959183673469386" type="line"/>
    </contour>
    <component base="cap"/>
    <component base="cap" yOffset="115.0"/>
  </outline>
</glyph>
<glyph name="_17" format="2">
  <advance width="25.0"/>
  <unicode hex="0111"/>
  <outline>
    <contour>
      <point x="0.0" y="12.959183673469386" type="line"/>
      <point x="0.0" y="157.9591836734694" type="line"/>
      <point x="25.0" y="157.9591836734694" type="line"/>
      <point x="25.0" y="12.959183673469386" type="line"/>
    </contour>
    <component base="cap"/>
    <component base="cap" yOffset="145.0"/>
  </outline>
</glyph>
<glyph name="_20" format="2">
  <advance width="25.0"/>
  <unicode hex="0114"/>
  <unicode hex="0032"/>
  <unicode hex="006B"/>
  <outline>
    <contour>
      <point x="0.0" y="12.959183673469386" type="line"/>
      <point x="0.0" y="187.9591836734694" type="line"/>
      <point x="25.0" y="187.9591836734694" type="line"/>
      <point x="25.0" y="12.959183673469386" type="line"/>
    </contour>
    <component base="cap"/>
    <component base="cap" yOffset="175.0"/>
  </outline>
</glyph>
<glyph name="_22" format="2">
  <advance width="25.0"/>
  <unicode hex="0116"/>
  <unicode hex="006C"/>
  <outline>
    <contour>
      <point x="0.0" y="12.959183673469386" type="line"/>
      <point x="0.0" y="207.9591836734694" type="line"/>
      <point x="25.0" y="207.9591836734694" type="line"/>
      <point x="25.0" y="12.959183673469386" type="line"/>
    </contour>
    <component base="cap"/>
    <component base="cap" yOffset="195.0"/>
  </outline>
</glyph>
<glyph name="_23" format="2">
  <advance width="25.0"/>
  <unicode hex="0117"/>
  <outline>
    <contour>
      <point x="0.0" y="12.959183673469386" type="line"/>
      <point x="0.0" y="217.9591836734694" type="line"/>
      <point x="25.0" y="217.9591836734694" type="line"/>
      <point x="25.0" y="12.959183673469386" type="line"/>
    </contour>
    <component base="cap"/>
    <component base="cap" yOffset="205.0"/>
  </outline>
</glyph>
<glyph name="_25" format="2">
  <advance width="25.0"/>
  <unicode hex="0119"/>
  <outline>
    <contour>
      <point x="0.0" y="12.959183673469386" type="line"/>
      <point x="0.0" y="237.9591836734694" type="line"/>
      <point x="25.0" y="237.9591836734694" type="line"/>
      <point x="25.0" y="12.959183673469386" type="line"/>
    </contour>
    <component base="cap"/>
    <component base="cap" yOffset="225.0"/>
  </outline>
</glyph>
<glyph name="_26" format="2">
  <advance width="25.0"/>
  <unicode hex="011A"/>
  <unicode hex="006E"/>
  <outline>
    <contour>
      <point x="0.0" y="12.959183673469386" type="line"/>
      <point x="0.0" y="247.9591836734694" type="line"/>
      <point x="25.0" y="247.9591836734694" type="line"/>
      <point x="25.0" y="12.959183673469386" type="line"/>
    </contour>
    <component base="cap"/>
    <component base="cap" yOffset="235.0"/>
  </outline>
</glyph>
<glyph name="_27" format="2">
  <advance width="25.0"/>
  <unicode hex="011B"/>
  <outline>
    <contour>
      <point x="0.0" y="12.959183673469386" type="line"/>
      <point x="0.0" y="257.9591836734694" type="line"/>
      <point x="25.0" y="257.9591836734694" type="line"/>
      <point x="25.0" y="12.959183673469386" type="line"/>
    </contour>
    <component base="cap"/>
    <component base="cap" yOffset="245.0"/>
  </outline>
</glyph>
<glyph name="_28" format="2">
  <advance width="25.0"/>
  <unicode hex="011C"/>
  <unicode hex="2583"/>
  <unicode hex="006F"/>
  <outline>
    <contour>
      <point x="0.0" y="12.959183673469386" type="line"/>
      <point x="0.0" y="267.9591836734694" type="line"/>
      <point x="25.0" y="267.9591836734694" type="line"/>
      <point x="25.0" y="12.959183673469386" type="line"/>
    </contour>
    <component base="cap"/>
    <component base="cap" yOffset="255.0"/>
  </outline>
</glyph>
<glyph name="_34" format="2">
  <advance width="25.0"/>
  <unicode hex="0122"/>
  <unicode hex="0072"/>
  <outline>
    <contour>
      <point x="0.0" y="12.959183673469386" type="line"/>
      <point x="0.0" y="327.9591836734694" type="line"/>
      <point x="25.0" y="327.9591836734694" type="line"/>
      <point x="25.0" y="12.959183673469386" type="line"/>
    </contour>
    <component base="cap"/>
    <component base="cap" yOffset="315.0"/>
  </outline>
</glyph>
<glyph name="_35" format="2">
  <advance width="25.0"/>
  <unicode hex="0123"/>
  <outline>
    <contour>
      <point x="0.0" y="12.959183673469386" type="line"/>
      <point x="0.0" y="337.9591836734694" type="line"/>
      <point x="25.0" y="337.9591836734694" type="line"/>
      <point x="25.0" y="12.959183673469386" type="line"/>
    </contour>
    <component base="cap"/>
    <component base="cap" yOffset="325.0"/>
  </outline>
</glyph>
<glyph name="_36" format="2">
  <advance width="25.0"/>
  <unicode hex="0124"/>
  <unicode hex="0073"/>
  <outline>
    <contour>
      <point x="0.0" y="12.959183673469386" type="line"/>
      <point x="0.0" y="347.9591836734694" type="line"/>
      <point x="25.0" y="347.9591836734694" type="line"/>
      <point x="25.0" y="12.959183673469386" type="line"/>
    </contour>
    <component base="cap"/>
    <component base="cap" yOffset="335.0"/>
  </outline>
</glyph>
<glyph name="_38" format="2">
  <advance width="25.0"/>
  <unicode hex="0126"/>
  <unicode hex="0074"/>
  <outline>
    <contour>
      <point x="0.0" y="12.959183673469386" type="line"/>
      <point x="0.0" y="367.9591836734694" type="line"/>
      <point x="25.0" y="367.9591836734694" type="line"/>
      <point x="25.0" y="12.959183673469386" type="line"/>
    </contour>
    <component base="cap"/>
    <component base="cap" yOffset="355.0"/>
  </outline>
</glyph>
<glyph name="_39" format="2">
  <advance width="25.0"/>
  <unicode hex="0127"/>
  <outline>
    <contour>
      <point x="0.0" y="12.959183673469386" type="line"/>
      <point x="0.0" y="377.9591836734694" type="line"/>
      <point x="25.0" y="377.9591836734694" type="line"/>
      <point x="25.0" y="12.959183673469386" type="line"/>
    </contour>
    <component base="cap"/>
    <component base="cap" yOffset="365.0"/>
  </outline>
</glyph>
<glyph name="_40" format="2">
  <advance width="25.0"/>
  <unicode hex="0128"/>
  <unicode hex="0034"/>
  <unicode hex="0075"/>
  <outline>
    <contour>
      <point x="0.0" y="12.959183673469386" type="line"/>
      <point x="0.0" y="387.9591836734694" type="line"/>
      <point x="25.0" y="387.9591836734694" type="line"/>
      <point x="25.0" y="12.959183673469386" type="line"/>
    </contour>
    <component base="cap"/>
    <component base="cap" yOffset="375.0"/>
  </outline>
</glyph>
<glyph name="_46" format="2">
  <advance width="25.0"/>
  <unicode hex="012E"/>
  <unicode hex="0078"/>
  <outline>
    <contour>
      <point x="0.0" y="12.959183673469386" type="line"/>
      <point x="0.0" y="447.9591836734694" type="line"/>
      <point x="25.0" y="447.9591836734694" type="line"/>
      <point x="25.0" y="12.959183673469386" type="line"/>
    </contour>
    <component base="cap"/>
    <component base="cap" yOffset="435.0"/>
  </outline>
</glyph>
<glyph name="_48" format="2">
  <advance width="25.0"/>
  <unicode hex="0130"/>
  <unicode hex="0079"/>
  <outline>
    <contour>
      <point x="0.0" y="12.959183673469386" type="line"/>
      <point x="0.0" y="467.9591836734694" type="line"/>
      <point x="25.0" y="467.9591836734694" type="line"/>
      <point x="25.0" y="12.959183673469386" type="line"/>
    </contour>
    <component base="cap"/>
    <component base="cap" yOffset="455.0"/>
  </outline>
</glyph>
<glyph name="_50" format="2">
  <advance width="25.0"/>
  <unicode hex="0132"/>
  <unicode hex="0035"/>
  <unicode hex="007A"/>
  <outline>
    <contour>
      <point x="0.0" y="12.959183673469386" type="line"/>
      <point x="0.0" y="487.9591836734694" type="line"/>
      <point x="25.0" y="487.9591836734694" type="line"/>
      <point x="25.0" y="12.959183673469386" type="line"/>
    </contour>
    <component base="cap"/>
    <component base="cap" yOffset="475.0"/>
  </outline>
</glyph>
<glyph name="_51" format="2">
  <advance width="25.0"/>
  <unicode hex="0133"/>
  <outline>
    <contour>
      <point x="0.0" y="12.959183673469386" type="line"/>
      <point x="0.0" y="497.9591836734694" type="line"/>
      <point x="25.0" y="497.9591836734694" type="line"/>
      <point x="25.0" y="12.959183673469386" type="line"/>
    </contour>
    <component base="cap"/>
    <component base="cap" yOffset="485.0"/>
  </outline>
</glyph>
<glyph name="_53" format="2">
  <advance width="25.0"/>
  <unicode hex="0135"/>
  <outline>
    <contour>
      <point x="0.0" y="12.959183673469386" type="line"/>
      <point x="0.0" y="517.9591836734694" type="line"/>
      <point x="25.0" y="517.9591836734694" type="line"/>
      <point x="25.0" y="12.959183673469386" type="line"/>
    </contour>
    <component base="cap"/>
    <component base="cap" yOffset="505.0"/>
  </outline>
</glyph>
<glyph name="_54" format="2">
  <advance width="25.0"/>
  <unicode hex="0136"/>
  <unicode hex="0042"/>
  <outline>
    <contour>
      <point x="0.0" y="12.959183673469386" type="line"/>
      <point x="0.0" y="527.9591836734694" type="line"/>
      <point x="25.0" y="527.9591836734694" type="line"/>
      <point x="25.0" y="12.959183673469386" type="line"/>
    </contour>
    <component base="cap"/>
    <component base="cap" yOffset="515.0"/>
  </outline>
</glyph>
<glyph name="_56" format="2">
  <advance width="25.0"/>
  <unicode hex="0138"/>
  <unicode hex="2585"/>
  <unicode hex="0043"/>
  <outline>
    <contour>
      <point x="0.0" y="12.959183673469386" type="line"/>
      <point x="0.0" y="547.9591836734694" type="line"/>
      <point x="25.0" y="547.9591836734694" type="line"/>
      <point x="25.0" y="12.959183673469386" type="line"/>
    </contour>
    <component base="cap"/>
    <component base="cap" yOffset="535.0"/>
  </outline>
</glyph>
<glyph name="_60" format="2">
  <advance width="25.0"/>
  <unicode hex="013C"/>
  <unicode hex="0036"/>
  <unicode hex="0045"/>
  <outline>
    <contour>
      <point x="0.0" y="12.959183673469386" type="line"/>
      <point x="0.0" y="587.9591836734694" type="line"/>
      <point x="25.0" y="587.9591836734694" type="line"/>
      <point x="25.0" y="12.959183673469386" type="line"/>
    </contour>
    <component base="cap"/>
    <component base="cap" yOffset="575.0"/>
  </outline>
</glyph>
<glyph name="_61" format="2">
  <advance width="25.0"/>
  <unicode hex="013D"/>
  <outline>
    <contour>
      <point x="0.0" y="12.959183673469386" type="line"/>
      <point x="0.0" y="597.9591836734694" type="line"/>
      <point x="25.0" y="597.9591836734694" type="line"/>
      <point x="25.0" y="12.959183673469386" type="line"/>
    </contour>
    <component base="cap"/>
    <component base="cap" yOffset="585.0"/>
  </outline>
</glyph>
<glyph name="_62" format="2">
  <advance width="25.0"/>
  <unicode hex="013E"/>
  <unicode hex="0046"/>
  <outline>
    <contour>
      <point x="0.0" y="12.959183673469386" type="line"/>
      <point x="0.0" y="607.9591836734694" type="line"/>
      <point x="25.0" y="607.9591836734694" type="line"/>
      <point x="25.0" y="12.959183673469386" type="line"/>
    </contour>
    <component base="cap"/>
    <component base="cap" yOffset="595.0"/>
  </outline>
</glyph>
<glyph name="_64" format="2">
  <advance width="25.0"/>
  <unicode hex="0140"/>
  <unicode hex="0047"/>
  <outline>
    <contour>
      <point x="0.0" y="12.959183673469386" type="line"/>
      <point x="0.0" y="627.9591836734694" type="line"/>
      <point x="25.0" y="627.9591836734694" type="line"/>
      <point x="25.0" y="12.959183673469386" type="line"/>
    </contour>
    <component base="cap"/>
    <component base="cap" yOffset="615.0"/>
  </outline>
</glyph>
<glyph name="_66" format="2">
  <advance width="25.0"/>
  <unicode hex="0142"/>
  <unicode hex="0048"/>
  <outline>
    <contour>
      <point x="0.0" y="12.959183673469386" type="line"/>
      <point x="0.0" y="647.9591836734694" type="line"/>
      <point x="25.0" y="647.9591836734694" type="line"/>
      <point x="25.0" y="12.959183673469386" type="line"/>
    </contour>
    <component base="cap"/>
    <component base="cap" yOffset="635.0"/>
  </outline>
</glyph>
<glyph name="_68" format="2">
  <advance width="25.0"/>
  <unicode hex="0144"/>
  <unicode hex="0049"/>
  <outline>
    <contour>
      <point x="0.0" y="12.959183673469386" type="line"/>
      <point x="0.0" y="667.9591836734694" type="line"/>
      <point x="25.0" y="667.9591836734694" type="line"/>
      <point x="25.0" y="12.959183673469386" type="line"/>
    </contour>
    <component base="cap"/>
    <component base="cap" yOffset="655.0"/>
  </outline>
</glyph>
<glyph name="_70" format="2">
  <advance width="25.0"/>
  <unicode hex="0146"/>
  <unicode hex="0037"/>
  <unicode hex="004A"/>
  <outline>
    <contour>
      <point x="0.0" y="12.959183673469386" type="line"/>
      <point x="0.0" y="687.9591836734694" type="line"/>
      <point x="25.0" y="687.9591836734694" type="line"/>
      <point x="25.0" y="12.959183673469386" type="line"/>
    </contour>
    <component base="cap"/>
    <component base="cap" yOffset="675.0"/>
  </outline>
</glyph>
<glyph name="_78" format="2">
  <advance width="25.0"/>
  <unicode hex="014E"/>
  <unicode hex="004E"/>
  <outline>
    <contour>
      <point x="0.0" y="12.959183673469386" type="line"/>
      <point x="0.0" y="767.9591836734694" type="line"/>
      <point x="25.0" y="767.9591836734694" type="line"/>
      <point x="25.0" y="12.959183673469386" type="line"/>
    </contour>
    <component base="cap"/>
    <component base="cap" yOffset="755.0"/>
  </outline>
</glyph>
<glyph name="_79" format="2">
  <advance width="25.0"/>
  <unicode hex="014F"/>
  <outline>
    <contour>
      <point x="0.0" y="12.959183673469386" type="line"/>
      <point x="0.0" y="777.9591836734694" type="line"/>
      <point x="25.0" y="777.9591836734694" type="line"/>
      <point x="25.0" y="12.959183673469386" type="line"/>
    </contour>
    <component base="cap"/>
    <component base="cap" yOffset="765.0"/>
  </outline>
</glyph>
<glyph name="_82" format="2">
  <advance width="25.0"/>
  <unicode hex="0152"/>
  <unicode hex="0050"/>
  <outline>
    <contour>
      <point x="0.0" y="12.959183673469386" type="line"/>
      <point x="0.0" y="807.9591836734694" type="line"/>
      <point x="25.0" y="807.9591836734694" type="line"/>
      <point x="25.0" y="12.959183673469386" type="line"/>
    </contour>
    <component base="cap"/>
    <component base="cap" yOffset="795.0"/>
  </outline>
</glyph>
<glyph name="_87" format="2">
  <advance width="25.0"/>
  <unicode hex="0157"/>
  <outline>
    <contour>
      <point x="0.0" y="12.959183673469386" type="line"/>
      <point x="0.0" y="857.9591836734694" type="line"/>
      <point x="25.0" y="857.9591836734694" type="line"/>
      <point x="25.0" y="12.959183673469386" type="line"/>
    </contour>
    <component base="cap"/>
    <component base="cap" yOffset="845.0"/>
  </outline>
</glyph>
<glyph name="_90" format="2">
  <advance width="25.0"/>
  <unicode hex="015A"/>
  <unicode hex="0039"/>
  <unicode hex="0054"/>
  <outline>
    <contour>
      <point x="0.0" y="12.959183673469386" type="line"/>
      <point x="0.0" y="887.9591836734694" type="line"/>
      <point x="25.0" y="887.9591836734694" type="line"/>
      <point x="25.0" y="12.959183673469386" type="line"/>
    </contour>
    <component base="cap"/>
    <component base="cap" yOffset="875.0"/>
  </outline>
</glyph>
<glyph name="_91" format="2">
  <advance width="25.0"/>
  <unicode hex="015B"/>
  <outline>
    <contour>
      <point x="0.0" y="12.959183673469386" type="line"/>
      <point x="0.0" y="897.9591836734694" type="line"/>
      <point x="25.0" y="897.9591836734694" type="line"/>
      <point x="25.0" y="12.959183673469386" type="line"/>
    </contour>
    <component base="cap"/>
    <component base="cap" yOffset="885.0"/>
  </outline>
</glyph>
<glyph name="_92" format="2">
  <advance width="25.0"/>
  <unicode hex="015C"/>
  <unicode hex="0055"/>
  <outline>
    <contour>
      <point x="0.0" y="12.959183673469386" type="line"/>
      <point x="0.0" y="907.9591836734694" type="line"/>
      <point x="25.0" y="907.9591836734694" type="line"/>
      <point x="25.0" y="12.959183673469386" type="line"/>
    </contour>
    <component base="cap"/>
    <component base="cap" yOffset="895.0"/>
  </outline>
</glyph>
<glyph name="_94" format="2">
  <advance width="25.0"/>
  <unicode hex="015E"/>
  <unicode hex="0056"/>
  <outline>
    <contour>
      <point x="0.0" y="12.959183673469386" type="line"/>
      <point x="0.0" y="927.9591836734694" type="line"/>
      <point x="25.0" y="927.9591836734694" type="line"/>
      <point x="25.0" y="12.959183673469386" type="line"/>
    </contour>
    <component base="cap"/>
    <component base="cap" yOffset="915.0"/>
  </outline>
</glyph>
<glyph name="_98" format="2">
  <advance width="25.0"/>
  <unicode hex="0162"/>
  <unicode hex="0058"/>
  <outline>
    <contour>
      <point x="0.0" y="12.959183673469386" type="line"/>
      <point x="0.0" y="967.9591836734694" type="line"/>
      <point x="25.0" y="967.9591836734694" type="line"/>
      <point x="25.0" y="12.959183673469386" type="line"/>
    </contour>
    <component base="cap"/>
    <component base="cap" yOffset="955.0"/>
  </outline>
</glyph>
<glyph name="_100" format="2">
  <advance width="25.0"/>
  <unicode hex="0164"/>
  <unicode hex="007C"/>
  <unicode hex="2588"/>
  <unicode hex="005A"/>
  <outline>
    <contour>
      <point x="0.0" y="12.959183673469386" type="line"/>
      <point x="0.0" y="987.9591836734694" type="line"/>
      <point x="25.0" y="987.9591836734694" type="line"/>
      <point x="25.0" y="12.959183673469386" type="line"/>
    </contour>
    <component base="cap"/>
    <component base="cap" yOffset="975.0"/>
  </outline>
</glyph>
<glyph name="_101" format="2">
  <advance width="25.0"/>
  <unicode hex="0165"/>
  <outline>
    <contour>
      <point x="0.0" y="12.959183673469386" type="line"/>
      <point x="0.0" y="997.9591836734694" type="line"/>
      <point x="25.0" y="997.9591836734694" type="line"/>
      <point x="25.0" y="12.959183673469386" type="line"/>
    </contour>
    <component base="cap"/>
    <component base="cap" yOffset="985.0"/>
  </outline>
</glyph>
<glyph name="_110" format="2">
  <advance width="25.0"/>
  <unicode hex="016E"/>
  <outline>
    <contour>
      <point x="0.0" y="12.959183673469386" type="line"/>
      <point x="0.0" y="1087.9591836734694" type="line"/>
      <point x="25.0" y="1087.9591836734694" type="line"/>
      <point x="25.0" y="12.959183673469386" type="line"/>
    </contour>
    <component base="cap"/>
    <component base="cap" yOffset="1075.0"/>
  </outline>
</glyph>
<glyph name="_119" format="2">
  <advance width="25.0"/>
  <unicode hex="0177"/>
  <outline>
    <contour>
      <point x="0.0" y="12.959183673469386" type="line"/>
      <point x="0.0" y="1177.9591836734694" type="line"/>
      <point x="25.0" y="1177.9591836734694" type="line"/>
      <point x="25.0" y="12.959183673469386" type="line"/>
    </contour>
    <component base="cap"/>
    <component base="cap" yOffset="1165.0"/>
  </outline>
</glyph>
<glyph name="_1.clip" format="2">
  <advance width="25.0"/>
  <outline>
    <contour>
      <point x="0.0" y="12.959183673469386" type="line"/>
      <point x="0.0" y="-2.040816326530612" type="line"/>
      <point x="25.0" y="-2.040816326530612" type="line"/>
      <point x="25.0" y="12.959183673469386" type="line"/>
    </contour>
    <component base="cap"/>
    <component base="cap" yOffset="-15.0"/>
  </outline>
</glyph>
<glyph name="_12.clip" format="2">
  <advance width="25.0"/>
  <outline>
    <contour>
      <point x="60.0" y="120.0" type="curve" smooth="yes"/>
      <point x="-35.0" y="120.0" type="line"/>
      <point x="-1.0816326530612272" y="120.0"/>
      <point x="25.0" y="93.0"/>
      <point x="25.0" y="60.0" type="curve" smooth="yes"/>
      <point x="25.0" y="60.0" type="line"/>
      <point x="25.0" y="26.0"/>
      <point x="-1.0816326530612272" y="0.0"/>
      <point x="-35.0" y="0.0" type="curve" smooth="yes"/>
      <point x="60.0" y="0.0" type="line"/>
      <point x="26.0" y="0.0"/>
      <point x="0.0" y="26.0"/>
      <point x="0.0" y="60.0" type="curve" smooth="yes"/>
      <point x="0.0" y="60.0" type="line"/>
      <point x="0.0" y="93.0"/>
      <point x="26.0" y="120.0"/>
    </contour>
  </outline>
</glyph>
<glyph name="_14.clip" format="2">
  <advance width="25.0"/>
  <outline>
    <contour>
      <point x="70.0" y="140.0" type="curve" smooth="yes"/>
      <point x="-45.0" y="140.0" type="line"/>
      <point x="-6.5" y="140.0"/>
      <point x="25.0" y="108.5"/>
      <point x="25.0" y="70.0" type="curve" smooth="yes"/>
      <point x="25.0" y="70.0" type="line"/>
      <point x="25.0" y="31.5"/>
      <point x="-6.5" y="0.0"/>
      <point x="-45.0" y="0.0" type="curve" smooth="yes"/>
      <point x="70.0" y="0.0" type="line"/>
      <point x="31.5" y="0.0"/>
      <point x="0.0" y="31.5"/>
      <point x="0.0" y="70.0" type="curve" smooth="yes"/>
      <point x="0.0" y="70.0" type="line"/>
      <point x="0.0" y="108.5"/>
      <point x="31.5" y="140.0"/>
    </contour>
  </outline>
</glyph>
<glyph name="_15.clip" format="2">
  <advance width="25.0"/>
  <outline>
    <contour>
      <point x="75.0" y="150.0" type="curve" smooth="yes"/>
      <point x="-50.0" y="150.0" type="line"/>
      <point x="-8.75" y="150.0"/>
      <point x="25.0" y="116.25"/>
      <point x="25.0" y="75.0" type="curve" smooth="yes"/>
      <point x="25.0" y="75.0" type="line"/>
      <point x="25.0" y="33.75"/>
      <point x="-8.75" y="0.0"/>
      <point x="-50.0" y="0.0" type="curve" smooth="yes"/>
      <point x="75.0" y="0.0" type="line"/>
      <point x="33.75" y="0.0"/>
      <point x="0.0" y="33.75"/>
      <point x="0.0" y="75.0" type="curve" smooth="yes"/>
      <point x="0.0" y="75.0" type="line"/>
      <point x="0.0" y="116.25"/>
      <point x="33.75" y="150.0"/>
    </contour>
  </outline>
</glyph>
<glyph name="_16.clip" format="2">
  <advance width="25.0"/>
  <outline>
    <contour>
      <point x="80.0" y="160.0" type="curve" smooth="yes"/>
      <point x="-55.0" y="160.0" type="line"/>
      <point x="-11.0" y="160.0"/>
      <point x="25.0" y="124.0"/>
      <point x="25.0" y="80.0" type="curve" smooth="yes"/>
      <point x="25.0" y="80.0" type="line"/>
      <point x="25.0" y="36.0"/>
      <point x="-11.0" y="0.0"/>
      <point x="-55.0" y="0.0" type="curve" smooth="yes"/>
      <point x="80.0" y="0.0" type="line"/>
      <point x="36.0" y="0.0"/>
      <point x="0.0" y="36.0"/>
      <point x="0.0" y="80.0" type="curve" smooth="yes"/>
      <point x="0.0" y="80.0" type="line"/>
      <point x="0.0" y="124.0"/>
      <point x="36.0" y="160.0"/>
    </contour>
  </outline>
</glyph>
<glyph name="_19.clip" format="2">
  <advance width="25.0"/>
  <outline>
    <contour>
      <point x="95.0" y="190.0" type="curve" smooth="yes"/>
      <point x="-70.0" y="190.0" type="line"/>
      <point x="-17.75" y="190.0"/>
      <point x="25.0" y="147.25"/>
      <point x="25.0" y="95.0" type="curve" smooth="yes"/>
      <point x="25.0" y="95.0" type="line"/>
      <point x="25.0" y="42.75"/>
      <point x="-17.75" y="0.0"/>
      <point x="-70.0" y="0.0" type="curve" smooth="yes"/>
      <point x="95.0" y="0.0" type="line"/>
      <point x="42.75" y="0.0"/>
      <point x="0.0" y="42.75"/>
      <point x="0.0" y="95.0" type="curve" smooth="yes"/>
      <point x="0.0" y="95.0" type="line"/>
      <point x="0.0" y="147.25"/>
      <point x="42.75" y="190.0"/>
    </contour>
  </outline>
</glyph>
<glyph name="_2.clip" format="2">
  <advance width="25.0"/>
  <outline>
    <contour>
      <point x="0.0" y="12.959183673469386" type="line"/>
      <point x="0.0" y="7.959183673469388" type="line"/>
      <point x="25.0" y="7.959183673469388" type="line"/>
      <point x="25.0" y="12.959183673469386" type="line"/>
    </contour>
    <component base="cap"/>
    <component base="cap" yOffset="-5.0"/>
  </outline>
</glyph>
<glyph name="_20.clip" format="2">
  <advance width="25.0"/>
  <outline>
    <contour>
      <point x="100.0" y="200.0" type="curve" smooth="yes"/>
      <point x="-75.0" y="200.0" type="line"/>
      <point x="-19.081632653061227" y="200.0"/>
      <point x="25.0" y="155.0"/>
      <point x="25.0" y="100.0" type="curve" smooth="yes"/>
      <point x="25.0" y="100.0" type="line"/>
      <point x="25.0" y="44.0"/>
      <point x="-19.081632653061227" y="0.0"/>
      <point x="-75.0" y="0.0" type="curve" smooth="yes"/>
      <point x="100.0" y="0.0" type="line"/>
      <point x="44.0" y="0.0"/>
      <point x="0.0" y="44.0"/>
      <point x="0.0" y="100.0" type="curve" smooth="yes"/>
      <point x="0.0" y="100.0" type="line"/>
      <point x="0.0" y="155.0"/>
      <point x="44.0" y="200.0"/>
    </contour>
  </outline>
</glyph>
<glyph name="_5.clip" format="2">
  <advance width="25.0"/>
  <outline>
    <contour>
      <point x="25.0" y="50.0" type="curve" smooth="yes"/>
      <point x="0.0" y="50.0" type="line"/>
      <point x="13.75" y="50.0"/>
      <point x="25.0" y="38.75"/>
      <point x="25.0" y="25.0" type="curve" smooth="yes"/>
      <point x="25.0" y="25.0" type="line"/>
      <point x="25.0" y="11.25"/>
      <point x="13.75" y="0.0"/>
      <point x="0.0" y="0.0" type="curve" smooth="yes"/>
      <point x="25.0" y="0.0" type="line"/>
      <point x="11.25" y="0.0"/>
      <point x="0.0" y="11.25"/>
      <point x="0.0" y="25.0" type="curve" smooth="yes"/>
      <point x="0.0" y="25.0" type="line"/>
      <point x="0.0" y="38.75"/>
      <point x="11.25" y="50.0"/>
    </contour>
  </outline>
</glyph>
<glyph name="_6.clip" format="2">
  <advance width="25.0"/>
  <outline>
    <contour>
      <point x="30.0" y="60.0" type="curve" smooth="yes"/>
      <point x="-5.0" y="60.0" type="line"/>
      <point x="11.5" y="60.0"/>
      <point x="25.0" y="46.5"/>
      <point x="25.0" y="30.0" type="curve" smooth="yes"/>
      <point x="25.0" y="30.0" type="line"/>
      <point x="25.0" y="13.5"/>
      <point x="11.5" y="0.0"/>
      <point x="-5.0" y="0.0" type="curve" smooth="yes"/>
      <point x="30.0" y="0.0" type="line"/>
      <point x="13.5" y="0.0"/>
      <point x="0.0" y="13.5"/>
      <point x="0.0" y="30.0" type="curve" smooth="yes"/>
      <point x="0.0" y="30.0" type="line"/>
      <point x="0.0" y="46.5"/>
      <point x="13.5" y="60.0"/>
    </contour>
  </outline>
</glyph>
<glyph name="_9.clip" format="2">
  <advance width="25.0"/>
  <outline>
    <contour>
      <point x="45.0" y="90.0" type="curve" smooth="yes"/>
      <point x="-20.0" y="90.0" type="line"/>
      <point x="4.75" y="90.0"/>
      <point x="25.0" y="69.75"/>
      <point x="25.0" y="45.0" type="curve" smooth="yes"/>
      <point x="25.0" y="45.0" type="line"/>
      <point x="25.0" y="20.25"/>
      <point x="4.75" y="0.0"/>
      <point x="-20.0" y="0.0" type="curve" smooth="yes"/>
      <point x="45.0" y="0.0" type="line"/>
      <point x="20.25" y="0.0"/>
      <point x="0.0" y="20.25"/>
      <point x="0.0" y="45.0" type="curve" smooth="yes"/>
      <point x="0.0" y="45.0" type="line"/>
      <point x="0.0" y="69.75"/>
      <point x="20.25" y="90.0"/>
    </contour>
  </outline>
</glyph>
<glyph name="cap" format="2">
  <outline>
    <contour>
      <point x="12.5" y="25.0" type="curve" smooth="yes"/>
      <point x="12.5" y="25.0" type="line"/>
      <point x="19.375" y="25.0"/>
      <point x="25.0" y="19.375"/>
      <point x="25.0" y="12.5" type="curve" smooth="yes"/>
      <point x="25.0" y="12.5" type="line"/>
      <point x="25.0" y="5.625"/>
      <point x="19.375" y="0.0"/>
      <point x="12.5" y="0.0" type="curve" smooth="yes"/>
      <point x="12.5" y="0.0" type="line"/>
      <point x="5.625" y="0.0"/>
      <point x="0.0" y="5.625"/>
      <point x="0.0" y="12.5" type="curve" smooth="yes"/>
      <point x="0.0" y="12.5" type="line"/>
      <point x="0.0" y="19.375"/>
      <point x="5.625" y="25.0"/>
    </contour>
  </outline>
</glyph>
